<svg xmlns="http://www.w3.org/2000/svg" xmlns:xlink="http://www.w3.org/1999/xlink" version="1.1" id="Layer_1" x="0px" y="0px" viewBox="0 0 595.3 841.9" style="enable-background:new 0 0 595.3 841.9;" xml:space="preserve">
<style type="text/css">
	.st0{fill:#A9BBC9;}
	.st1{fill:#952A3C;}
	.st2{fill:#E29B72;}
	.st3{fill:#D48966;}
	.st4{fill:#A32F45;}
	.st5{fill:#FEFEFE;}
</style>
<path class="st0" d="M-213,445.9c0-16,0-32,0-48c1.2-1.6,1.1-3.4,1.2-5.3c1.7-21.9,3.8-43.7,7.9-65.4c8.8-46,23.5-90.1,44.3-132.1  c16.5-33.4,36.7-64.4,59.9-93.6c25.8-32.4,55.3-60.8,88-86c38.9-29.9,81.3-53.8,127.2-71.3c43.7-16.6,88.7-27.3,135.2-31.6  c8.4-0.8,17,0,25.2-2.8c16,0,32,0,48,0c1.4,1.2,3.1,1.1,4.7,1.2c11.4,1,22.9,1.7,34.3,3.2c65.2,8.6,126.9,28.1,184.4,60.4  C600.3,4.4,647,41.8,686.5,88c33.4,39,60.7,81.7,81.1,128.8c21.7,50.2,35.8,102.3,40.6,156.9c0.7,8.4,0.5,17,2.8,25.2  c0,15.7,0,31.3,0,47c-3.4,10.1-2.5,20.7-3.7,31c-2.3,19.7-5.4,39.1-9.9,58.4c-7.4,31.7-17.5,62.6-30.6,92.5  c-13.9,32-31.2,62-51.1,90.5c-1-0.2-2-0.3-2.9-0.6c-39-14.4-77.8-29-116.4-44.3c-22.2-8.8-44.3-18-67.3-24.7  c-4.9-9.5-11.7-17.7-17.2-26.8c-11.8-19.6-23.6-39.2-35.7-58.7c-5-8-11.8-13.5-22.2-12.1c-0.5-0.5-1-0.9-1.5-1.4  c1-2.9,1.5-5.8,1.5-8.8c4.3-7.1,8.8-14.1,12.4-21.6c10.8-22.4,17.1-46,19.4-70.7c0.7-0.4,0.9-0.9,0.1-1.5c0.4-1.2,0.7-2.3,1.1-3.5  c5.3-0.4,8.3-3.8,10.2-8.3c2.4-5.6,2.1-11.4,1.2-17.2c-0.8-5-0.8-10,0.9-14.8c6.8-18.7,11.9-37.7,14.2-57.5  c1.7-15.2,3.6-30.4,1.4-45.7c-0.9-6-2.8-11.5-8.8-14.1c-6-2.5-11.4-0.1-16.1,3.7c-1.7,1.4-3.3,2.1-5.4,1.4c0.3-2.1,0.6-4.3,0.9-6.4  c3.2-26.4,7.8-52.5,7.8-79.3c0-26.6-6.8-50.9-20-73.7c-6-10.4-13.1-20-22.3-27.9l0,0c-0.3-0.3-0.6-0.6-1-0.9c-0.8-1-1.6-2.1-2.4-3.1  c-23.2-25.1-51.2-43.3-82.2-57.1c-29.9-13.4-61.3-16.8-93.6-12.4c-27,3.6-51.7,13.5-74.7,27.8c-8.3,5.1-16.7,10.2-24,16.9  c-0.6,0.3-1.2,0.7-1.8,1c-0.4,0.3-0.8,0.6-1.2,0.9c-0.3,0.3-0.7,0.7-1,1c0,0,0,0,0,0c-4.2,1.2-6.9,4.6-10.1,7.2  c-13.4,10.9-26.3,22.5-36.9,36.3c-19.1,25-25.6,54.1-26.8,84.7c-0.9,22.7,2.9,45.1,8.4,67.1l0,0.3l0.3,0.1c0.4,2.6,0.6,5.2,2.2,7.4  c0.2,0.4,0.5,0.7,0.7,1.1c-0.1,2.3,0.4,4.6,1.1,6.8c-3.2,0.7-5.8-1.2-8.6-2.2c-9.9-3.5-15.9-0.1-18.6,10.2c-1.3,4.9,0,9.6,0.2,14.4  c0.4,15,0.5,30,1.2,44.9c0.4,10.1,0.9,20.4,4.5,30c4.1,10.9,5.5,21.4-0.4,32.1c-1.2,2.2-1.1,4.7-0.6,7.3c1.6,8.5,8.3,11,15.2,13.4  c0.3,3,0.6,6,1.1,8.9c5.3,34.7,20.2,65.2,40.9,93.1c0.9,3.9,1.7,7.7,2.6,11.6c-1.6,5.2,0.9,10.3,0.4,15.4c-8.7,1.6-14.7,6.8-19.7,14  c-13.8,19.7-25.1,40.8-36.2,62c-1.7,2.5-3.4,5-4.3,7.9c0,0,0.2,0,0.2,0c-0.3,0.4-0.6,0.7-0.8,1.1c-0.2,0.1-0.3,0.3-0.2,0.5  c-0.8,0.6-1.3,1.4-1.1,2.5l0.1-0.1c-0.7,0-0.9,0.5-0.9,1.1l0,0c-0.4,0.7-0.7,1.4-1.1,2.1l0,0.3c-0.3,0.5-0.7,1-1,1.6  c-0.2,0.4-0.4,0.7-0.6,1.1c-0.2,0.3-0.3,0.6-0.2,0.9c-0.2,0.2-0.3,0.5-0.2,0.8c-0.9,0.9-1.6,1.9-1.2,3.2l-0.1-0.1  c-2.7,0.1-5.2,0.4-7.8,1.2c-11.3,3.4-22.6,6.6-33.9,10.1C5,687.9-26.8,698.1-58,710c-17.1,6.5-34,13.3-51,20  c-4.4-6.2-9-12.3-13.3-18.6c-22.3-33.1-41-68.1-55.3-105.4c-19.1-49.9-31-101.2-33.5-154.7C-211.1,449.2-211.6,447.4-213,445.9z"/>
<path class="st1" d="M715.8,718.2c-1.1,4.7-4.6,8-7.3,11.6c-30.9,40.5-66.7,76-108,105.9c-28.6,20.8-59,38.5-91.1,53  c-40,18.1-81.8,30.8-125.1,38.1c-14.9,2.5-29.9,4.1-45,5.2c-1.8,0.1-4.1-0.5-5.2,1.8c-22,0-44,0-66,0c-0.3-2.7,0.9-5.8-1.7-8.1  c-0.6-4.6-1.1-9.2-1.7-13.8c0.2-0.4,0.4-0.9,0.6-1.3c5.6,0.4,4.2-4,4.5-6.9c0.6-7.2,0.5-7.2-6.1-4.4c-0.4-0.4-0.7-0.8-1.1-1.3  c-0.6-3.4-1.2-6.8-1.9-10.1c-0.5-2.3,0.2-3.8,2.7-4.3c2.4-0.5,4.7-1.2,7.1-1.8c1.6-0.3,2.9-0.8,2.4-2.8c1.6-3.5,2.4-7.3,2.9-11.1  c2-4.7,4-9.4,6-14.1c0.3,0.6,0.8,1.1,0.9,1.7c0.3,1.4-1.5,3.5,1.1,4.2c2.4,0.7,3.7-0.8,4.7-2.7c0.9-1.8,1.9-3.5,3.1-5.1  c11.6-16.6,27.4-28.8,43.3-40.8c12.3-9.3,25.2-18.1,36.2-29c11.7-11.6,22.7-23.9,31.2-38.1c2-3.4,3.7-3.2,6.6-0.8  c21.4,18,43.7,34.8,67.9,49c15.8,9.2,31.7,18.2,48.7,25.2c3.6,1.5,4.8,0.5,5.3-2.9c1.1-6.9,2.3-13.8,3.4-20.7  c4.4-28.8,7.1-57.7,4.6-86.8c-0.5-5.4-0.8-10.9-1.3-16.4c-1.4-14.3-4.9-28.1-8.4-42c23,6.7,45.1,15.9,67.3,24.7  c38.6,15.3,77.5,29.9,116.4,44.3C713.8,717.9,714.8,718,715.8,718.2z M292.8,890.2c-0.1,9.9,6.8,17.2,16.6,17.4  c9.7,0.2,17.1-7,17.3-16.7c0.2-10.1-6.8-17.7-16.6-17.9C300.4,872.8,293,880.2,292.8,890.2z"/>
<path class="st2" d="M173,74.9c7.3-6.7,15.7-11.7,24-16.9c23-14.3,47.8-24.1,74.7-27.8c32.3-4.4,63.7-0.9,93.6,12.4  c30.9,13.8,59,32,82.2,57.1c0.9,1,1.6,2.1,2.4,3.1c0.3,0.3,0.6,0.6,1,0.9c0,0,0,0,0,0c0,2.1,1,3.8,2.1,5.5  c4.4,7.4,8.4,15.1,11.2,23.3c6.9,20.3,6.8,40.7,1.6,61.4c-2.7,11-5.4,22-5.4,33.4c0,11.9,3.4,23.3,6.6,34.7  c6.9,24.9,13.2,49.8,12.2,76c-0.5,13.4-4,25.8-9,38.1c-5.7,14.1-15.4,25.6-23.9,37.8c-8.6,12.2-15.1,25.5-16.9,40.2  c-2.4,20.3-7.1,39.6-17.3,57.3c-7.6,13.2-16,25.5-28.3,35.1c-12,9.4-25.2,16.2-39.5,20.6c-7.3,2.2-15.1,4.2-22.9,2.4  c-10.6-2.5-21-2-31.6,0c-14.7,2.7-29,2.1-43.4-3.7c-23.9-9.5-40.9-26.2-53.9-47.6c-10-16.4-15.7-34.4-19.6-53.1  c-1.9-9.4-6.2-17.8-13.3-24.7c-5.6-5.4-11.4-10.8-16.3-16.9c-12.1-15-18-32.7-22.3-51.3c-4.6-20.2-3.8-39.7,6-58.1  c8-15,24.1-21.6,38-9c7.4,6.7,16.3,9,25.6,9.4c16.6,0.7,32.2-3.7,46.9-11.5c2.4-1.3,4.9-2.7,8.9-2.8c-9.1,13.4-21.8,20.9-34.9,28.4  c2.3,1.7,3.8,0.8,5.4,0.4c13.3-3.8,25-10.6,35.3-19.8c1.4-1.3,2.8-3.6,4.9-2.5c1.8,0.9,0.9,3.3,0.9,5.1c-0.1,11.9-4.1,22.8-8.9,33.5  c-2.3,5.1-5.3,10-5.9,15.8c-0.7,0.9-1.4,1.9-2,2.8c-1.9,0-3,1.3-4.2,2.5c-9.2,9.5-16.1,20.6-21.4,32.6c-1.9,4.2-4.7,8.2-5.2,13.3  c2.4-0.7,3.4-2.4,4.4-3.8c5.1-7,9.9-14.1,15-21c2.1-2.8,3.6-6.4,7.4-7.6c-0.2,9,4.3,15.1,11.6,19.7c-6.8,3.9-13.4,8-20.3,11.7  c-19.2,10.6-31.2,26.6-35.9,47.9c-1.5,7-1.4,14.3,1.8,21.1c1.8,3.8,4.1,7.5,9,7.5c5.8,0,18.4-9.1,20.6-14.8c4-0.2,8-0.4,12-0.6  c4.2,3.1,9.5,3.4,14.2,5.5c7.8,3.6,15.8,7.1,24.2,9c13.8,3.2,27.7,2.2,41.6,0.7c7.9-0.9,15.8-1.5,23.3-4.5  c9.2-3.8,18.3-7.8,27.2-12.3c1-0.5,2-1.1,2.6-2.2c4.8-0.1,9.4,1.2,13.9,2.7c0,1.9,0.9,3,2.5,4c3.5,2,6.8,4.1,10.2,6.2  c5.5,3.4,8.3,2.8,11.1-3.2c6.6-14.4,3.1-28.4-3.7-41.2c-9.5-17.7-25.8-28.2-44.2-35.4c-2.5-1-5-1.8-6.9-3.9c2.5-1.3,4.9-2.5,7-4.5  c5.1-4.8,5.1-11.1,5.3-17.3c2.1,0.3,3,1.9,4,3.4c6.1,8.2,12.3,16.5,18.5,24.6c0.8,1.1,1.8,3,3.5,2c1.4-0.8,0.4-2.4,0-3.6  c-6.2-16.3-15.9-30.1-28.9-41.7c-1.3-1.2-2.7-2-4.5-1.8c-2,0.2-1.3,1.4-0.8,2.4c0.9,1.9,1.9,3.7,2.9,5.5c-1.7,2.2-0.7,4.8-1,7.3  c-0.6,5.1-4,6.8-8.3,4.2c-1.7-1-3.6-1.8-5.4-2.4c-9.3-3.1-17.5,0.6-25.1,5.1c-10.8,6.3-21.5,5.7-32.4,0.7c-2.7-1.2-5.8-2-7.2-5  c-3.9-8.4-6.7-16.9-4.8-26.5c1.6-8,4.4-15.7,6.9-23.4c1.6-4.9,2.6-9.9,2.5-15.2c-0.1-10.3,0-20.6-0.1-31c0-2.2,0.1-4.3,1.3-6.2  c8.2-13.2,25.4-13.6,34.5-1c3.5,4.9,6.4,10.1,9.8,15c1.4,2,2.8,3.7,5.6,3.4c1.5,1.5,2.4,3.5,4.8,3.9c-0.1,1.8,0.7,3.1,1.8,4.5  c9.4,13,23.3,19.3,37.4,25.4c0.5,0.2,1.2-0.1,1.8-0.2c0-1.7-1.3-2.1-2.2-2.7c-8-6.2-16.7-11.6-22.6-20.1c-0.8-1.2-2.6-2.2-1.5-3.8  c1.1-1.5,2.8-0.2,4.1,0.2c2.8,1,5.6,2.2,8.3,3.4c14.6,6.7,29.7,10.7,45.9,9.4c2.2-0.2,4.5-0.2,6.9-2.5c-9.9-1-19-1.8-27.8-3.9  c-9-2.2-17.3-5.7-25.7-10.8c4.3-1.7,8.3,0.5,12.3-2.1c-4-1-7.3-0.6-10.6-0.6c-2.7,0-4.5-0.9-5-3.7c9,1.2,18.1,2.4,27.1,3.6  c4.8,0,9.5,0,14.3,0.1c9.4,0.8,17.6-3.2,25.8-7.1c2.1-0.5,3.9,0.5,5.8,1.3c2.2,3.8,5.4,3.3,8.6,1.7c15.9-8.1,19.3-24.8,11.3-41.4  c-1.1-2.4-1.6-5.6-4.9-6.5c-0.3-0.1-0.6-0.2-0.9-0.1l0.1,0c-0.2-1-0.2-2-0.6-2.9c-8.3-15.2-20.7-24-38.3-24.2  c-19.6-0.3-38.2,4.3-56,12.1c-2.4-1.6-4.9-0.5-7.2,0.3c-8,2.8-16.1,5.1-24.2,7.7c-21.3,6.8-41.9,2.8-62.4-3.8  c-5.4-1.7-10.7-4.7-16.7-3c-16.8-6.9-34.3-10.5-52.4-10.1c-20.6,0.5-36.6,8.7-44.7,28.8c-3.8,4.5-7.5,9-11.8,14.1  c-0.2-1.7-0.5-2.3-0.4-2.9c1.7-14.7,2-29.4-1-44c-3.8-18.7-7.4-37.5-6.3-56.8c0.4-7.5,1.7-14.9,4.3-21.9c6-16.2,15.4-30.4,26.8-43.4  c3.4-3.9,8-7.1,10-12.2c0,0,0,0,0,0c0.3-0.3,0.7-0.7,1-1c0.4-0.3,0.8-0.6,1.2-0.9C171.8,75.6,172.4,75.3,173,74.9z M320,503.8  c8.7-2.5,17-5.7,22.6-14.6c-26.1,5.6-51.5,7-77.4,0.5c0.9,3.1,2.3,4.4,3.4,5.8c4.6,5.5,11.1,7.8,17.4,10.3c-0.4,2.2-2.2,2.7-4,3.3  c-5.6,2.1-11,4.7-15.8,8.4c-1.2,0.9-3.8,1.5-2.5,3.5c0.9,1.5,2.7-0.3,4-0.8c17.9-7.3,36.4-9.6,55.5-7.1c5,0.6,9.9,2.2,14.9,3.4  c-2.7-3.9-6.5-5.9-10.6-7.6C324.7,507.6,321.3,507.3,320,503.8z"/>
<path class="st3" d="M243.2,361.1c0.6-5.8,3.6-10.6,5.9-15.8c4.8-10.7,8.8-21.6,8.9-33.5c0-1.7,0.9-4.2-0.9-5.1  c-2.1-1.1-3.5,1.2-4.9,2.5c-10.3,9.3-22,16-35.3,19.8c-1.5,0.4-3.1,1.3-5.4-0.4c13-7.5,25.8-15,34.9-28.4c-4.1,0.1-6.5,1.5-8.9,2.8  c-14.7,7.8-30.3,12.2-46.9,11.5c-9.3-0.4-18.3-2.7-25.6-9.4c-13.9-12.6-30-5.9-38,9c-9.8,18.4-10.6,38-6,58.1  c4.2,18.5,10.1,36.3,22.3,51.3c4.9,6.1,10.7,11.4,16.3,16.9c7.1,6.8,11.4,15.3,13.3,24.7c3.9,18.7,9.7,36.7,19.6,53.1  c13,21.4,30,38.1,53.9,47.6c14.4,5.7,28.7,6.3,43.4,3.7c10.6-1.9,21.1-2.4,31.6,0c7.8,1.8,15.6-0.2,22.9-2.4  c14.4-4.4,27.6-11.3,39.5-20.6c12.2-9.6,20.7-22,28.3-35.1c10.2-17.7,14.9-37,17.3-57.3c1.7-14.6,8.3-28,16.9-40.2  c8.6-12.2,18.2-23.8,23.9-37.8c5-12.3,8.5-24.7,9-38.1c1-26.2-5.3-51.1-12.2-76c-3.1-11.4-6.6-22.8-6.6-34.7  c0-11.3,2.7-22.4,5.4-33.4c5.2-20.7,5.3-41.1-1.6-61.4c-2.8-8.2-6.7-15.9-11.2-23.3c-1-1.7-2-3.4-2.1-5.5  c9.2,7.9,16.3,17.5,22.3,27.9c13.2,22.7,19.9,47.1,20,73.7c0,26.8-4.6,52.9-7.8,79.3c-0.3,2.1-0.6,4.3-0.9,6.4  c-2.9,12.4-1.3,25-1.2,37.5c-0.9,5.2,0.9,10.2,1.5,15.3c0.4,3.1-0.3,6.4,1.6,9.3c4.4,6.7,4.9,13.9,3.1,21.5  c-1.3,5.3-2.4,10.7-0.5,16.2c-1.8,17.5-0.5,35.2-2.1,52.7c-0.4,1.2-0.7,2.3-1.1,3.5c0,0.5-0.1,1-0.2,1.5  c-2.3,24.7-8.6,48.3-19.4,70.7c-3.6,7.5-8.1,14.4-12.4,21.6c-3.6,2.5-5.9,6.3-8.8,9.5c-14.4,16-31.6,28.5-50.4,38.7  c-18,9.8-36.9,17.7-57.2,21.3c-20.4,3.6-41,3.6-61.6,1.5c-18.5-1.9-36.4-6.5-53.2-14.2c-30.1-13.8-58-31-79.8-56.8  c-20.7-27.9-35.6-58.4-40.9-93.1c-0.5-3-0.7-5.9-1.1-8.9c-0.9-5.4-0.8-10.9-1-16.4c-0.5-12,1.1-23.9,1.1-35.8  c1.5-20.2,5.8-40,7.7-60.2c1.2-6.7,1.6-13.6,1.2-20.4c-0.4-5.8-1.3-11.5-2-17.3c-0.7-2.2-1.2-4.4-1.1-6.8c-0.2-0.4-0.5-0.7-0.7-1.1  c-1.6-2.2-1.8-4.8-2.2-7.4c-0.1-0.1-0.2-0.3-0.3-0.4c-5.6-22-9.3-44.3-8.4-67.1c1.2-30.6,7.6-59.7,26.8-84.7  c10.6-13.8,23.5-25.4,36.9-36.3c3.2-2.6,5.9-6,10.1-7.2c-2,5.2-6.5,8.3-10,12.2c-11.4,13-20.8,27.1-26.8,43.4  c-2.6,7.1-3.8,14.4-4.3,21.9c-1.1,19.3,2.5,38,6.3,56.8c2.9,14.6,2.7,29.3,1,44c-0.1,0.6,0.2,1.2,0.4,2.9c4.3-5.2,8.1-9.7,11.8-14.1  c3.1,0,5.1-2.1,7.5-3.5c13.5-7.7,27.4-12.7,43.2-8c-3.5,2.8-7.7,1-11.5,1.4c-25.1,2.3-32.2,15.8-29.2,37.5c0.3,2.1,0.7,4.7,3.5,5.5  c-0.4,1.3-0.7,2.6-1.1,4c-0.2,0.4-0.3,0.7-0.5,1.1c0.3-0.3,0.5-0.6,0.8-0.9c2.4-0.7,3.6-2.9,5.3-4.4c14.3-12.7,31.1-17.1,49.8-14.9  c10.7,1.2,19.7,6.6,28.6,12.2l0.1,0c0.3,1,0.9,1.6,2,1.7c4,1.5,6.7,4.8,10.3,6.9c5.9,3.4,12,6.8,7.2,16.5c2.1-1.1,2.8-1.2,3.2-1.7  c7-9.6,11.6-19.8,8.2-32c-3-11-10.5-19-18.8-26.4c-2.5-5.7-6.4-10.2-11.4-13.8c6-1.7,11.3,1.2,16.7,3c20.5,6.6,41,10.6,62.4,3.8  c8.1-2.6,16.2-4.9,24.2-7.7c2.2-0.8,4.7-1.9,7.2-0.3c-4.5,4.2-10.3,7.6-9.7,15.1c-4.7,3.4-8.7,7.7-12.2,12.3  c-4.2,5.6-6.2,11.8-6.1,19c0.2,8,4.5,14,8.2,20.5c-2.7,0.3-4.2-1.4-5.6-3.4c-3.4-4.9-6.3-10.1-9.8-15c-9.1-12.6-26.4-12.2-34.5,1  c-1.2,2-1.3,4.1-1.3,6.2c0,10.3-0.1,20.6,0.1,31c0.1,5.2-0.9,10.2-2.5,15.2c-2.5,7.7-5.3,15.4-6.9,23.4c-1.9,9.5,0.9,18.1,4.8,26.5  c1.4,3,4.6,3.8,7.2,5c10.9,5,21.5,5.6,32.4-0.7c7.6-4.5,15.8-8.1,25.1-5.1c1.9,0.6,3.8,1.4,5.4,2.4c4.3,2.6,7.7,0.9,8.3-4.2  c0.3-2.4-0.6-5,1-7.3c3.8,5.3,3.1,11.1,1.6,16.7c-2.4,9.2-9.5,12.8-19.5,13.2c4.4,2.7,7.7,1.2,10.9,1c1.9,2.1,4.4,2.9,6.9,3.9  c18.4,7.2,34.7,17.7,44.2,35.4c6.8,12.7,10.3,26.8,3.7,41.2c-2.8,6-5.5,6.6-11.1,3.2c-3.4-2.1-6.8-4.2-10.2-6.2  c-1.6-0.9-2.5-2.1-2.5-4c1.9-4.2,0.2-6.5-4-7.4c-0.1-1.4-0.9-2.5-2-3.3c-13.6-10.4-27.4-20.6-44.1-25.7c-7-2.1-14.1-2.4-20.7,1.6  c-5.4,3.3-10.6,3-16.2,0.6c-7.5-3.2-15.5-3.3-22.9-0.4c-15.9,6.2-29.8,16-43.8,25.7c-2.1,1.5-3.3,3.8-3.2,6.5c-1.5,1-2.6,2.3-2,4.3  c-2.3,5.7-14.8,14.8-20.6,14.8c-4.9,0-7.2-3.7-9-7.5c-3.2-6.7-3.3-14.1-1.8-21.1c4.6-21.3,16.6-37.3,35.9-47.9  c6.8-3.8,13.5-7.8,20.3-11.7c2.7-0.4,5.7,1,8.8-0.8c-14.1-4.4-16.7-9.9-16.5-20.9c0.1-10.2,5.4-18.1,12.3-25.2  C248.8,354.4,246.7,358.6,243.2,361.1z M197.4,294.7c5.3,0.4,10.7,1,15.7-1.6c5.2,1.7,10-0.6,14.9-1.6c5.9-1.1,12.1,0.4,17.9-1.7  c3.9-0.7,2.6-2.1,0.4-3.5c-8-5-15.9-10.4-24.8-13.7c-18.3-6.8-35.3-4.3-50.5,8c-2.2,1.8-4.5,3.7-5.2,6.7c2.1,0.9,3.6-0.5,5.2-0.5  C178.7,293,188.1,293.7,197.4,294.7z M401.5,547.2c-0.3-0.3-0.6-0.6-0.9-0.9c-2.7,1.7-5.3,3.4-8,5c-17,10.4-34.7,19.2-54.7,22.2  c-16.1,2.5-32.2,1.3-48.4,1.5c-8.7,0.1-17.3-0.3-25.9-1.5c-21.6-2.9-40.7-12.1-59.6-22.1c-0.9-0.5-1.6-1.6-3.2-0.7  c16.3,14,34.2,24.2,55.2,29.1c19.3,4.5,38.9,4.9,58.5,4.8c20.5-0.1,39.9-4.7,58-14.5C383.6,564.4,393.5,556.9,401.5,547.2z   M300,401.8c3.8,0.3,8,0.1,10.9-2.4c8.4-7.4,18.4-10.1,29.1-11.1c0.7-0.1,1.3-0.2,2-0.4c1.5-0.5,2.9-1.1,2.9-2.9  c0-1.7-1.1-2.7-2.5-3.4c-2.9-1.4-5.9-1.1-8.8-0.5c-6.3,1.3-11,5.4-15.7,9.3c-9.8,8.1-18.3,8.9-29.3,2.5c-3.4-2-6.6-4.4-9.9-6.7  c-4.6-3.3-9.6-4.6-15.1-3c-2.5,0.7-4.9,2-4.6,5.1c0.2,3.2,3,3.7,5.5,3.9c2.5,0.2,5,0.2,7.5-0.1c6.3-0.9,11.6,1.6,15.9,5.6  C291.3,401.1,295.2,402.2,300,401.8z"/>
<path class="st1" d="M261.5,932.1c-23.5-1.3-46.7-4.9-69.8-9.7c-29.7-6.1-58.4-15.2-86.5-26.5c-20-8.1-39.4-17.7-58.3-28.4  c-32.8-18.5-63.1-40.4-91.1-65.5c-23.1-20.7-44-43.5-62.8-68.1c-0.8-1.1-2.4-2-2-3.8c17-6.7,33.9-13.5,51-20  c31.2-11.9,63-22.2,94.9-32c11.3-3.5,22.6-6.6,33.9-10.1c2.6-0.8,5.2-1.2,7.8-1.2c1.3,4.6-1.3,8.8-1.6,13.2  c-0.9,15.4-1.5,30.8-0.2,46.3c1.5,18.9,3.8,37.6,7.9,56.1c0.8,3.6,2.4,4.5,5.7,4.5c8.8,0,17.5-1,26.3-2c19.9-2.2,39.3-6.7,57.9-14  c15.5-6,30.3-13.7,45.6-20.2c7.8-3.3,16.2-4.9,23.7-9c0.9,0.2,2.4,0.2,2.2,1.3c-0.1,0.8-1.4,1.5-2.2,2.2c-5.1,0.4-9.3,2.9-13.3,5.8  c-4,1.3-7.9,2.7-10.9,5.9c-5.6,0.1-3.3,3.5-2.7,6.2c0.5,4.4,0.7,8.9,3.4,12.7c-0.1,4.2,1.5,8.1,2.8,12c0.9,4.4,2.1,8.8,3.8,12.9  c1.2,4.1,2.3,8.2,4.3,11.9c0.9,4.3,2.6,8.4,4.9,12.2c0.9,4.3,2.2,8.5,4.9,12.1c0.1,4.5,2,8.3,4.7,11.9c0.6,4.4,2,8.5,4.3,12.2  c0.5,4.3,1.1,8.5,4.1,11.9c-0.5,4.5,1.3,8.4,2.8,12.4c-0.1,4.5,1.5,8.7,2.9,12.9c-0.1,0.9-0.1,1.7-0.2,2.6c-0.2,0.3-0.2,0.5,0.1,0.8  c0.4,3.4,0.9,6.8,1.3,10.3c0.4,4.7,0.9,9.4,1.3,14.1c-0.1,1.9-0.3,3.7-0.4,5.5C261.8,931.5,261.6,931.7,261.5,932.1z"/>
<path class="st4" d="M529.1,648.6c3.5,13.9,7,27.7,8.4,42c0.5,5.4,0.8,10.9,1.3,16.4c2.5,29.1-0.1,58-4.6,86.8  c-1.1,6.9-2.3,13.8-3.4,20.7c-0.5,3.4-1.7,4.4-5.3,2.9c-17-7-32.9-16-48.7-25.2c-24.2-14.1-46.5-31-67.9-49  c-2.9-2.4-4.6-2.5-6.6,0.8c-8.5,14.2-19.6,26.5-31.2,38.1c-11,10.9-23.8,19.7-36.2,29c-15.9,12-31.7,24.2-43.3,40.8  c-1.1,1.6-2.2,3.4-3.1,5.1c-1,1.9-2.3,3.4-4.7,2.7c-2.5-0.7-0.8-2.8-1.1-4.2c-0.1-0.6-0.6-1.2-0.9-1.7c0-0.3,0-0.6-0.1-0.8  c0.3-0.3,0.7-0.6,1-1c2-0.2,2.3-1.5,2.2-3.2c0.3-0.7,0.5-1.3,0.8-2c6.3-2.5,6.5-8.7,8.2-13.9l0.1-0.1c0.3-0.5,0.6-0.9,0.9-1.4  c0.3-0.6,0.6-1.1,0.9-1.7c6.6-4,12-8.8,12.1-17.4c8-13,15.8-26.1,25.4-38.1c10.9-13.6,22.6-26,38.7-33.1  c22.4-9.8,39.3-25.2,50.8-46.6c8.8-16.5,16-33.7,22.3-51.2c2.9-8,5.4-16.1,6.8-24.5c1.2-1,1.7-2.4,2-3.9c1.2-5.5,2.7-11,3.6-16.5  c1.8-11.6,4.9-23,2.4-34.9c-0.9-4.1-2.2-7.7-6.9-8.8c0.3-1.3,0.6-2.5,0.8-3.8c10.4-1.5,17.2,4.1,22.2,12.1  c12.1,19.4,23.9,39.1,35.7,58.7C517.4,630.9,524.2,639.1,529.1,648.6z"/>
<path class="st2" d="M453.9,551.1c-0.3,1.3-0.6,2.5-0.8,3.8c-0.9,17-0.9,34.1-1,51.1c0,2.6,0.4,5.3-0.5,7.9c-1.4,0.5-2,1.7-2.4,3  c-2.1,5.6-4.9,10.9-7.6,16.2c-12.9,25.6-30.8,47.3-50.3,67.9c-13.5,14.3-27.6,28-41.6,41.8c-13.2,13.1-24.2,27.8-34,43.6  c-2.3,3.6-3.9,7.8-7.4,10.6c-1.1-2.5-2.2-5-3.3-7.5c-2-4.6-3.3-9.6-6.5-13.6c-1.4-4.8-3-9.6-6.5-13.4c-1.4-4.3-3.7-8.1-6.5-11.6  c-2.3-6.5-7.4-8.2-13.7-7.9c-1.4,0-2.9,0-4.3,0.1c-3.7,0-7.5,0-11.2,0c-1.6-0.2-2.7-1.1-3.8-2.1c-9.2-8.9-18.8-17.4-27.6-26.8  c-8.5-9.1-16.3-19-21.5-30.5c-3.3-7.3-6.1-14.8-3.5-23.1c1.4-4.4,4.2-6.9,8.8-6.5c8.6,0.7,17.4,0.9,25.5,4  c12.2,4.5,24.5,8.3,36.7,12.8c15.1,5.6,30.8,7.1,46.6,3.2c7.1-1.8,13-5.2,17.1-11.9c4.6-7.4,8.4-15.6,15.6-21.2  c0.7-0.5,0.9-1.7,1.3-2.6c2.5-1.4,4.9-2.9,7.4-4.2c27.2-13.9,50.3-32.9,70.7-55.4c8.3-9.1,15.6-19,22.7-29  C453,550.2,453.4,550.6,453.9,551.1z"/>
<path class="st4" d="M244,741.7c-7.5,4.1-15.9,5.7-23.7,9c-15.3,6.6-30,14.2-45.6,20.2c-18.7,7.2-38,11.8-57.9,14  c-8.7,1-17.5,2-26.3,2c-3.3,0-4.9-0.9-5.7-4.5c-4.1-18.5-6.4-37.2-7.9-56.1c-1.2-15.5-0.7-30.9,0.2-46.3c0.3-4.4,2.8-8.6,1.6-13.2  c0,0,0.1,0.1,0.1,0.1c1.2-0.8,1.3-2,1.2-3.2c-0.1-0.3,0-0.6,0.2-0.8c0.1-0.3,0.1-0.6,0.2-0.9c0.2-0.4,0.4-0.7,0.6-1.1  c0.3-0.5,0.7-1,1-1.6c0,0,0-0.3,0-0.3c0.4-0.7,0.7-1.4,1.1-2.1c0,0,0,0,0,0c0.3-0.4,0.6-0.8,0.9-1.1c0,0-0.1,0.1-0.1,0.1  c0.8-0.6,1-1.5,1.1-2.5c-0.1-0.2,0-0.4,0.2-0.5c0.3-0.4,0.6-0.7,0.8-1.1c0,0-0.2,0-0.2,0c4.4-0.5,5.3-2.1,4.3-7.9  c11.1-21.2,22.4-42.4,36.2-62c5-7.2,11-12.3,19.7-14c1.4,2.2,1,4.6,0.9,7c-4.5,1.6-5.3,5.4-5.9,9.5c-1.6,11.4,0.7,22.4,3.4,33.3  c1,3.8,1,8.3,4.4,11.2c0.8,3.9,2.2,7.7,3.9,11.3c13.1,26.6,30.5,50.3,51,71.7C215.5,724.1,229.2,733.7,244,741.7z"/>
<path class="st3" d="M244,741.7c-14.8-8.1-28.5-17.7-40.3-29.9c-20.5-21.4-37.9-45-51-71.7c-1.8-3.6-3.1-7.3-3.9-11.3  c-0.6-18-1.3-36-1.9-54c0-2.4,0.4-4.8-0.9-7c0.5-5.2-2-10.2-0.4-15.4c0.8,0.6,1.7,1.1,2.3,1.8c9.1,12.4,20,23.1,31.5,33.2  c23.4,20.5,48.7,38.2,77.2,50.8c23.7,10.5,48.4,14.1,73.9,7.2c7.2-2,14.2-4.8,21.2-7.2c-0.4,0.9-0.6,2.1-1.3,2.6  c-7.2,5.6-11,13.7-15.6,21.2c-4.1,6.7-10,10.1-17.1,11.9c-15.9,4-31.5,2.4-46.6-3.2c-12.2-4.5-24.5-8.3-36.7-12.8  c-8.2-3-16.9-3.2-25.5-4c-4.6-0.4-7.4,2.1-8.8,6.5c-2.7,8.3,0.1,15.8,3.5,23.1c5.2,11.5,13,21.4,21.5,30.5  c8.7,9.4,18.4,17.9,27.6,26.8c1.1,1.1,2.3,2,3.8,2.1c0.6,3.8,2.8,4.5,6,2.7c1.7-0.9,3.8-1.2,5.2-2.7c1.4,0,2.9,0,4.3-0.1  c0,2.7,2.1,4.5,2.7,6.9c1.4,4.8,4.3,4.8,8,2.8c1-0.5,2-1.2,3-1.8c2.8,3.5,5.1,7.3,6.5,11.6c-1.9,0.9-3.9,1.8-5.8,2.7  c-1,0.5-2.6,1-2.3,2.2c1.2,4.3,1.8,9.5,5.2,11.9c2.7,1.9,6.6-1.1,9.4-3.5c3.2,4,4.5,9,6.5,13.6c-2.3-0.4-4.1,1-6.2,1.5  c-4.2,0.9-5.3,3.2-3.4,7.2c1.4,2.8,2.2,5.9,3.3,8.9c-4.8,1.6-9.6,3.1-14.5,4.7c-1.6-4.4-3.3-8.9-4.9-13.3c3.4-1.2,6.8-2.6,10.3-3.5  c3.9-1,4.9-2.3,3-6.4c-4.2-9-1.9-8.5-11.9-5.1c-1.1,0.4-2.1,0.9-3.2,1.2c-2.6,0.7-2.8,2.1-2,4.5c1,2.7,3,5.2,2.6,8.4  c-1.3,0.7-2.6,1.5-4,2c-9.5,3.3-9.3,3.2-5.5,12.5c1.4,3.3,3.2,3.7,6.2,2.7c3-1,5.9-2.3,9.1-2.3c0.2,0.3,0.5,0.5,0.6,0.8  c1.7,3.4,1.3,8.5,4.4,10.1c3.2,1.7,7-1.9,10.9-2.1c0.1,3.5-3.3,5.5-4,8.6c-0.3,0.6-0.6,1.1-0.9,1.7c-0.3,0.5-0.6,0.9-0.9,1.4  c0,0-0.1,0.1-0.1,0.1c-3.1,0.8-2.6-2-3-3.4c-1.2-4.4-3.3-5.8-7.9-4.5c-9.6,2.6-9.6,2.4-6,11.8c1.1,3,2.8,4.3,6.1,3.1  c2-0.7,3.9-1.8,6.4-1.3c-1.3,2.8-2.6,5.5-3.8,8.2c-0.3,0.7-0.5,1.3-0.8,2c-0.8,0.4-1.4,1.3-2.5,1c-0.6-1.5-1.4-3-1.7-4.6  c-0.9-3.9-2.8-5-6.7-3.6c-3.4,1.2-6.9,2.4-10.5,2.2c-6.2-13.3-6.2-13.3-18.5-8.4c-0.6-3.8-3.3-7-3-11.1c3.1-1,6.2-2.2,9.4-3.1  c2.4-0.7,2.9-1.9,2.3-4.4c-2.5-10.1-2.9-10.4-13-7.4c-1.2,0.4-2.4,1-3.6,1.5l-0.2-0.2c-1.3-3.8-2.5-7.6-3.8-11.3  c4.3-1.1,8.6-2.1,13-3.2c0.4,0.9,0.8,1.8,1.1,2.7c3.5,9.4,0.7,9.1,11.3,5.8c7.4-2.3,7.3-2.5,4.4-10.2c-1.1-3-2.5-4.3-5.9-2.9  c-3.4,1.4-7,2.1-10.5,3.1c-1-2.5-2-5.1-3.2-8.1c4.9,0.8,9.1,1,13-0.8c2.2-1,3,0.2,3.6,2c0.8,2.6,2.4,2.8,4.7,2  c2.5-0.9,5-1.8,7.5-2.7c1.1-0.4,2.5-1,2.1-2.3c-1.1-3.6-2.5-7.2-3.9-10.7c-1-2.4-2.8-0.7-4.3-0.7c-0.3,0-0.7-0.3-0.8-0.5  c-0.9-3.8-3.3-8-2.4-11.3c1.6-5.7-2.2-8.9-3.7-13.1c-0.3-0.9-1.8-1.3-2.6-0.7c-3.3,2.5-10.7,0-9.8,7.8c0,0.4-0.8,1.1-1.3,1.3  c-3.8,1-6.2,4.1-9.1,6.7c-3.7-6.5-3.7-6.5-10.7-3.6c-1.4,0.6-2.8,1.1-4.2,1.7c-0.8-1.4-1.7-2.8-1.5-4.5c3-3.2,6.9-4.6,10.9-5.9  c2.4,6.3,2.4,6.3,8.7,3.6c6.4-2.8,6.4-2.8,4.6-9.4c0.8-0.7,2.1-1.4,2.2-2.2C246.4,742,244.9,742,244,741.7z M259.3,831.6  c3.2-0.8,5.6-1.3,8-2c7.6-2.1,7.5-2.1,4.7-9.7c-1.2-3.3-2.6-5.2-6.5-3.4c-1.9,0.9-4.1,1.3-6.3,1.6c-3.9,0.7-5.1,2.5-3.4,6.2  c0.7,1.7,1.2,3.5,1.8,5.2C258.1,830.7,258.5,831.9,259.3,831.6z M270.5,771.7c3.7-1.4,7.6-2.9,11.4-4.5c0.5-0.2,1-1.1,0.9-1.5  c-0.9-3.8-2.7-7.3-5.1-10.1c-1.9-2.2-4.5,0.7-6.7,1.5c-7.7,3-7.7,3.2-4,10.7C267.7,769.3,267.9,771.5,270.5,771.7z"/>
<path class="st4" d="M351.7,638.3c-7.1,2.4-14,5.2-21.2,7.2c-25.5,6.9-50.2,3.3-73.9-7.2c-28.5-12.6-53.8-30.2-77.2-50.8  c-11.5-10.1-22.4-20.8-31.5-33.2c-0.6-0.8-1.5-1.2-2.3-1.8c-0.9-3.9-1.7-7.7-2.6-11.6c21.7,25.7,49.6,43,79.8,56.8  c16.8,7.7,34.8,12.4,53.2,14.2c20.6,2.1,41.2,2.1,61.6-1.5c20.4-3.6,39.2-11.6,57.2-21.3c18.8-10.2,36-22.7,50.4-38.7  c2.9-3.2,5.2-7,8.8-9.5c0,3-0.6,5.9-1.5,8.8c-7.2,10-14.4,19.9-22.7,29c-20.4,22.5-43.5,41.5-70.7,55.4  C356.5,635.4,354.1,636.9,351.7,638.3z"/>
<path class="st2" d="M483.3,328.7c-0.1-12.5-1.6-25.1,1.2-37.5c2.1,0.8,3.7,0,5.4-1.4c4.7-3.8,10.1-6.2,16.1-3.7c6,2.5,8,8,8.8,14.1  c2.2,15.3,0.3,30.5-1.4,45.7c-2.3,19.8-7.4,38.8-14.2,57.5c-1.7,4.8-1.7,9.7-0.9,14.8c0.9,5.8,1.2,11.6-1.2,17.2  c-1.9,4.5-4.9,7.9-10.2,8.3c1.5-17.5,0.2-35.2,2.1-52.7c5.4-7.7,10.6-15.4,11.2-25.2c0.8-11.5-1.1-22-12.4-28.2  c-2.5-1.4-1.5-2.8-0.6-4.5c2.7-4.8,5.3-9.6,8-14.4c0.8-1.4,1.4-3.6,3.2-3.5c2.1,0.1,2.2,2.6,2.8,4.2c2.5,7.7,4.8,15.6,5.5,23.8  c3.4-13.9,4.9-27.8,3.4-42c-0.4-4.4-2.7-4.8-6.2-3.3c-2.6,1.1-4.4,3.1-5.7,5.4C493.3,311.8,488.3,320.3,483.3,328.7z"/>
<path class="st2" d="M101,386.7c0,12-1.6,23.9-1.1,35.8c0.2,5.5,0.1,10.9,1,16.4c-6.9-2.4-13.6-4.9-15.2-13.4  c-0.5-2.6-0.6-5.1,0.6-7.3c5.9-10.7,4.5-21.2,0.4-32.1c-3.6-9.6-4.1-19.9-4.5-30c-0.6-15-0.8-30-1.2-44.9c-0.1-4.8-1.4-9.5-0.2-14.4  c2.6-10.3,8.6-13.6,18.6-10.2c2.8,1,5.3,2.9,8.6,2.2c0.7,5.8,1.6,11.5,2,17.3c0.4,6.8,0.1,13.6-1.2,20.4c-4.1-4.7-6.2-10.6-9.2-16  c-2-3.5-4.1-6.9-7.4-9.3c-1.4-1-2.9-2.5-4.9-1.4c-1.9,1-1.2,3-1.1,4.5c0.8,10.8,1.1,21.6,0.9,32.4c-0.1,3.7-1.5,7.3-0.2,11.1  c0.9-1.4,1.4-2.9,1.9-4.4c2.2-7.9,4.3-15.7,6.6-23.6c0.3-1,0.2-2.6,1.7-2.7c1.2-0.1,1.5,1.1,1.9,2c2.3,4.8,4.5,9.6,6.7,14.5  c1.3,2.8,0.6,4.9-1.7,7.1C89.5,354.9,88.5,370.5,101,386.7z"/>
<path class="st1" d="M90.1,643.9c1,5.7,0.1,7.4-4.3,7.9C86.7,648.8,88.4,646.4,90.1,643.9z"/>
<path class="st1" d="M79.9,663.6c0,1.2,0,2.4-1.2,3.2C78.4,665.5,79,664.5,79.9,663.6z"/>
<path class="st2" d="M485.8,448.7c0.1-0.5,0.1-1,0.2-1.5C486.6,447.8,486.5,448.2,485.8,448.7z"/>
<path class="st1" d="M83,656.9c-0.4,0.7-0.7,1.4-1.1,2.1C82.3,658.3,82.7,657.6,83,656.9z"/>
<path class="st1" d="M84.9,653.4c-0.1,1-0.3,1.8-1.1,2.5C83.7,654.8,84.2,654.1,84.9,653.4z"/>
<path class="st3" d="M173,74.9c-0.6,0.3-1.2,0.7-1.8,1C171.8,75.6,172.4,75.3,173,74.9z"/>
<path class="st1" d="M82,659.3c-0.3,0.5-0.7,1-1,1.6C81.3,660.4,81.6,659.8,82,659.3z"/>
<path class="st1" d="M86,651.8c-0.3,0.4-0.6,0.7-0.8,1.1C85.4,652.5,85.7,652.1,86,651.8z"/>
<path class="st2" d="M103.7,273.1c0.1,0.2,0.2,0.3,0.3,0.4c0,0-0.3-0.1-0.3-0.1L103.7,273.1z"/>
<path class="st1" d="M84,655.8c-0.3,0.4-0.6,0.8-0.9,1.1C83.1,656.3,83.2,655.8,84,655.8z"/>
<path class="st1" d="M80.4,662c-0.1,0.3-0.1,0.6-0.2,0.9C80.1,662.5,80.2,662.2,80.4,662z"/>
<path class="st2" d="M106.2,280.9c0.2,0.4,0.5,0.7,0.7,1.1C106.6,281.7,106.4,281.3,106.2,280.9z"/>
<path class="st3" d="M451,103.9c-0.3-0.3-0.6-0.6-1-0.9C450.3,103.3,450.6,103.6,451,103.9z"/>
<path class="st3" d="M170,76.9c-0.3,0.3-0.7,0.7-1,1C169.3,77.6,169.7,77.2,170,76.9z"/>
<path class="st3" d="M262.6,926c-0.4-4.7-0.9-9.4-1.3-14.1c1.1,0,2.2,0,3.3,0.1c0.6,4.6,1.2,9.2,1.7,13.8  C265.1,925.9,263.8,925.9,262.6,926z"/>
<path class="st3" d="M261.5,932.1c0.1-0.4,0.3-0.5,0.7-0.5C262,931.7,261.7,931.9,261.5,932.1z"/>
<path class="st5" d="M292.8,890.2c0.1-10,7.6-17.4,17.3-17.2c9.8,0.2,16.8,7.8,16.6,17.9c-0.2,9.7-7.7,16.9-17.3,16.7  C299.6,907.4,292.7,900.1,292.8,890.2z M317.9,886.2c0.1-3.2-3.2-4.7-5.8-2.7c-1.8,1.4-2.8,1.7-4.5,0c-1.4-1.4-3.4-1.4-4.9,0.2  c-1.4,1.5-1,3.2,0.2,4.5c1.8,1.9,1.4,3.3-0.3,5c-1.4,1.4-0.9,3,0.3,4.5c1.4,1.6,3.1,1.4,4.4,0.3c1.7-1.6,2.9-2.1,5-0.3  c1.3,1.1,3.3,1.6,4.9-0.2c1.5-1.7,1.1-3.4-0.4-4.8c-1.4-1.4-1.8-2.5-0.2-4.1C317.3,887.8,317.6,886.8,317.9,886.2z"/>
<path class="st3" d="M281.7,852.9c0,0.3,0.1,0.6,0.1,0.8c-2,4.7-4,9.4-6,14.1c-4.1,0.4-5.8,2.3-4.1,6.4c0.6,1.5,0.8,3.1,1.2,4.7  c0.5,2-0.8,2.5-2.4,2.8c-2.4,0.5-4.7,1.3-7.1,1.8c-2.5,0.5-3.1,2-2.7,4.3c0.7,3.4,1.2,6.8,1.9,10.1c-0.8,0.6-1.7,0.6-2.5,0.3  c-1.4-4.2-3-8.4-2.9-12.9c2.3-0.4,3.2-1.4,2.4-4c-0.9-2.5-2.1-5.1-1.4-8c3.6-2,9.3-0.7,11.4-4c2.3-3.6-1.7-8-2-12.2  C272,854.8,276.9,854.1,281.7,852.9z"/>
<path class="st3" d="M263.6,899.2c6.6-2.8,6.7-2.8,6.1,4.4c-0.2,3,1.1,7.3-4.5,6.9C264.1,906.9,263.6,903.1,263.6,899.2z"/>
<path class="st5" d="M263.6,899.2c0,3.9,0.5,7.7,1.6,11.4c-0.2,0.4-0.4,0.9-0.6,1.3c-1.1,0-2.2,0-3.4-0.1c-0.4-3.4-0.9-6.8-1.3-10.3  c0.2-0.3,0.2-0.6-0.1-0.8c0.1-0.9,0.1-1.7,0.2-2.6c0.9,0.3,1.8,0.3,2.5-0.3C262.9,898.4,263.2,898.8,263.6,899.2z"/>
<path class="st5" d="M272.9,879c-0.4-1.6-0.6-3.2-1.2-4.7c-1.7-4.2-0.1-6.1,4.1-6.4C275.2,871.7,274.5,875.4,272.9,879z"/>
<path class="st3" d="M450.9,239.9c3.3,0.9,3.8,4.1,4.9,6.5c8,16.7,4.6,33.3-11.3,41.4c-3.2,1.6-6.4,2.1-8.6-1.7  c0.3-2-0.8-3.4-2.1-4.8c-7.2-8.2-16.6-12.7-27-14.4c-18.8-3.1-34.8,3.9-49.4,15.1c-1,0.8-2.9,1.6-1.4,3.5l0-0.2  c-1.1-1.3-2.1-0.7-2.6,0.3c-0.6,1.2,0.7,1,1.4,1.2c0.7,0.4,1.5,0.8,2.2,1.1c0.3,0,0.6,0.1,0.9,0.1c1.7,0.1,3.4,0.2,5,0.3  c0.5,2.8,2.3,3.7,5,3.7c3.3,0,6.6-0.5,10.6,0.6c-4,2.6-7.9,0.5-12.3,2.1c8.4,5.2,16.8,8.6,25.7,10.8c8.8,2.2,17.9,2.9,27.8,3.9  c-2.5,2.3-4.7,2.4-6.9,2.5c-16.2,1.2-31.3-2.8-45.9-9.4c-2.7-1.2-5.5-2.4-8.3-3.4c-1.3-0.5-3-1.7-4.1-0.2c-1.2,1.6,0.7,2.6,1.5,3.8  c5.9,8.6,14.6,14,22.6,20.1c0.9,0.7,2.2,1,2.2,2.7c-0.6,0.1-1.3,0.4-1.8,0.2c-14.1-6.1-28-12.5-37.4-25.4c-1-1.4-1.8-2.8-1.8-4.5  c0.7-1.3,0.2-2.7-0.2-3.8c-1.8-5.1-0.1-7.8,5.2-9.3c3.9-1.1,7.6-3.3,9.1-7.6c4.1-1.2,7-4.3,10.5-6.5c21.3-13.6,48.2-12.5,67.7,2.7  c3.4,2.7,5.6,6.4,9.1,9.7c0.6-4.7-3.1-6.8-4.4-10c1.6-1.8,5.6,1.7,5.9-2.6c0.5-6.4-0.1-12.7-4.2-18c-6.1-8-14.1-12-24-13.5  c-7.8-1.2-15.6,0.1-23.4-1.3c0.5-0.6,0.9-1.5,1.6-1.8c12.7-5.8,25.7-8.1,39.1-2.2c6.1,2.7,12,5.7,18,8.5c0,0-0.1,0-0.1,0  C450.3,239.9,450.6,239.9,450.9,239.9z"/>
<path class="st3" d="M369,468.5c-0.5,1.1-1.5,1.7-2.6,2.2c-8.9,4.5-18,8.6-27.2,12.3c-7.5,3.1-15.5,3.7-23.3,4.5  c-13.8,1.5-27.8,2.6-41.6-0.7c-8.4-2-16.4-5.5-24.2-9c-4.6-2.1-10-2.3-14.2-5.5c5-0.3,9.9-1.4,14.7-2.7c16-4.2,31.9-7.9,48.6-3.8  c3.5,0.9,7.2,0.3,10.9-0.3c8.3-1.3,16.5-4.6,25.1-3.2C346.5,464.1,357.8,466.4,369,468.5z"/>
<path class="st1" d="M198.2,233.5c-15.8-4.7-29.7,0.3-43.2,8c-2.4,1.4-4.5,3.5-7.5,3.5c8.1-20.1,24.1-28.3,44.7-28.8  c18.1-0.4,35.7,3.1,52.4,10.1c5,3.6,8.9,8.2,11.4,13.8c-1.1,1.5-2.7,1.6-4.3,2c-11,2.2-21.7,0.7-32.3-2.1  C212.4,237.5,205.5,234.9,198.2,233.5z"/>
<path class="st1" d="M450,239.9c-6-2.8-11.9-5.8-18-8.5c-13.4-5.9-26.3-3.7-39.1,2.2c-0.7,0.3-1.1,1.2-1.6,1.8c-0.5,0-0.9,0-1.4,0  c-2.1-0.9-3.8,0.1-5.7,0.8c-12.6,5-25.6,6-39,3.9c-0.5-7.5,5.2-10.9,9.7-15.1c17.8-7.9,36.4-12.4,56-12.1c17.6,0.2,30.1,9,38.3,24.2  C449.9,237.9,449.9,238.9,450,239.9z"/>
<path class="st4" d="M345.3,240c13.3,2.1,26.4,1.1,39-3.9c1.9-0.7,3.6-1.7,5.7-0.8c-8.4,6.9-18.4,11.3-27.2,17.5  c-4,2.8-7.9,5.6-9.8,10.3c-0.4,1.1-1.2,2.2-0.4,3.3c1,1.3,2.4,0.7,3.7,0.4c2.7-0.6,4.4-3.8,7.6-3c-0.6,1.7-2.2,2.3-3.4,3.4  c-2.5,2.3-5.7,4-6.5,7.7c-1.6,4.3-5.2,6.5-9.2,7.6c-5.3,1.5-7,4.2-5.2,9.3c0.4,1.2,1,2.5,0.2,3.8c-2.3-0.4-3.3-2.5-4.8-3.9  c-3.6-6.4-8-12.5-8.2-20.5c-0.1-7.2,1.9-13.4,6.1-19C336.6,247.7,340.6,243.5,345.3,240z"/>
<path class="st1" d="M356.1,285.4c-1.5-1.9,0.4-2.7,1.4-3.5c14.6-11.1,30.6-18.2,49.4-15.1c10.4,1.7,19.8,6.3,27,14.4  c1.2,1.4,2.4,2.8,2.1,4.8c-1.8-0.8-3.7-1.8-5.8-1.3c-4.3-6-10.4-9.3-17.5-12.4c2.3,9.2-1.6,14.9-8.3,19.4c-4.8,0-9.5,0-14.3-0.1  c-7.3-4-10.5-10.2-9.3-19C371.8,276.1,364.5,281.8,356.1,285.4z M409,276c-0.2-2.4-1.9-3.7-4.1-3.9c-2.4-0.2-3.5,1.9-3.6,3.8  c-0.1,2.2,1.3,3.8,3.6,3.8C407.2,279.9,408.5,278.5,409,276z"/>
<path class="st4" d="M286.1,505.7c-6.3-2.5-12.8-4.8-17.4-10.3c-1.2-1.4-2.6-2.6-3.4-5.8c25.9,6.6,51.3,5.1,77.4-0.5  c-5.6,8.9-13.9,12-22.6,14.6C308.7,504.4,297.4,505.1,286.1,505.7z"/>
<path class="st1" d="M369,468.5c-11.3-2.1-22.5-4.4-33.8-6.1c-8.6-1.3-16.7,1.9-25.1,3.2c-3.7,0.6-7.4,1.2-10.9,0.3  c-16.7-4.1-32.6-0.4-48.6,3.8c-4.8,1.3-9.7,2.4-14.7,2.7c-4,0.2-8,0.4-12,0.6c-0.6-2,0.5-3.3,2-4.3c2.9-0.4,5.8-0.7,8.7-1.1  c8.3-0.3,16.4-2.3,24.4-4.3c11.2-2.7,22.4-4.8,33.9-2.5c6.6,1.3,13.3,1.9,19.7-0.2c13.1-4.2,26.2-2.6,39.4-0.3c6,1,12,2.8,18.2,2.3  c2.9,0.4,5.7,0.8,8.6,1.2c4.2,0.9,5.9,3.2,4,7.4C378.4,469.7,373.9,468.4,369,468.5z"/>
<path class="st3" d="M286.1,505.7c11.3-0.6,22.6-1.3,33.9-1.9c1.3,3.5,4.7,3.9,7.6,5c4.1,1.6,7.9,3.6,10.6,7.6  c-5-1.1-9.8-2.7-14.9-3.4c-19.1-2.5-37.7-0.2-55.5,7.1c-1.3,0.5-3.1,2.3-4,0.8c-1.2-2,1.4-2.6,2.5-3.5c4.8-3.6,10.2-6.2,15.8-8.4  C283.8,508.4,285.6,507.9,286.1,505.7z"/>
<path class="st3" d="M356.9,359c1.8-0.2,3.1,0.6,4.5,1.8c13,11.5,22.7,25.4,28.9,41.7c0.5,1.2,1.4,2.9,0,3.6c-1.7,0.9-2.6-0.9-3.5-2  c-6.2-8.2-12.3-16.4-18.5-24.6c-1.1-1.5-2-3.1-4-3.4C363.6,369.5,359.9,364.4,356.9,359z"/>
<path class="st3" d="M237.1,379.9c-3.8,1.2-5.3,4.8-7.4,7.6c-5.1,6.9-9.9,14.1-15,21c-1,1.4-1.9,3.1-4.4,3.8  c0.5-5.2,3.3-9.1,5.2-13.3c5.3-12,12.2-23.1,21.4-32.6c1.2-1.2,2.3-2.4,4.2-2.5C239.2,369.1,237.9,374.4,237.1,379.9z"/>
<path class="st5" d="M356.1,285.4c8.3-3.6,15.6-9.2,24.7-12.5c-1.2,8.8,2,15,9.3,19c-9-1.2-18.1-2.4-27.1-3.6  c-1.7-0.1-3.4-0.2-5-0.3c-0.3-0.2-0.6-0.2-0.9-0.1c-0.7-0.4-1.5-0.8-2.2-1.1c0.4-0.5,0.8-1,1.2-1.6L356.1,285.4z"/>
<path class="st5" d="M404.4,291.9c6.7-4.5,10.6-10.3,8.3-19.4c7.1,3.1,13.2,6.4,17.5,12.4C422,288.6,413.9,292.6,404.4,291.9z"/>
<path class="st4" d="M237.1,379.9c0.8-5.4,2.1-10.8,4-15.9c0.7-0.9,1.4-1.9,2-2.8c3.5-2.5,5.6-6.8,10.2-8.4  c-6.9,7.1-12.2,15-12.3,25.2c-0.1,11,2.4,16.4,16.5,20.9c-3.2,1.7-6.1,0.4-8.8,0.8C241.5,395,236.9,388.8,237.1,379.9z"/>
<path class="st4" d="M356.9,359c3,5.4,6.7,10.5,7.4,17c-0.2,6.2-0.1,12.5-5.3,17.3c-2.1,2-4.5,3.2-7,4.5c-3.2,0.2-6.5,1.7-10.9-1  c10-0.4,17.1-4,19.5-13.2c1.5-5.6,2.2-11.5-1.6-16.7c-1-1.8-2-3.7-2.9-5.5C355.6,360.4,354.9,359.2,356.9,359z"/>
<path class="st1" d="M450.9,239.9c-0.3,0-0.6,0-0.9-0.1C450.3,239.8,450.6,239.8,450.9,239.9z"/>
<path class="st2" d="M198.2,233.5c7.3,1.4,14.2,4.1,21.2,6.5c0,1.2,0.8,1.7,1.7,2.2c4.5,2.8,9.1,5.4,13.5,8.4  c6,4.1,12.3,7.9,16.1,14.5c0.9,1.5,2.4,3.4,1,5c-1.5,1.9-3.3,0.1-4.9-0.5c-4.3-1.7-7.8-5.1-12.7-5.2c-21.4-12.2-56.2-5.8-73.1,13.5  c-2.9-0.7-3.2-3.4-3.5-5.5c-3-21.7,4.1-35.3,29.2-37.5C190.5,234.5,194.6,236.2,198.2,233.5z"/>
<path class="st4" d="M401.5,547.2c-8,9.7-17.8,17.1-28.8,23.1c-18.1,9.8-37.5,14.3-58,14.5c-19.7,0.1-39.2-0.3-58.5-4.8  c-21-4.9-38.9-15.1-55.2-29.1c1.5-0.9,2.3,0.2,3.2,0.7c18.9,10,38.1,19.2,59.6,22.1c8.6,1.2,17.2,1.6,25.9,1.5  c16.1-0.2,32.3,0.9,48.4-1.5c20-3.1,37.7-11.9,54.7-22.2c2.7-1.6,5.3-3.3,8-5C400.9,546.6,401.2,546.9,401.5,547.2z"/>
<path class="st4" d="M234.1,264.4c4.9,0.1,8.5,3.5,12.7,5.2c1.6,0.6,3.4,2.4,4.9,0.5c1.3-1.7-0.1-3.5-1-5  c-3.8-6.6-10.1-10.4-16.1-14.5c-4.4-3-9-5.6-13.5-8.4c-0.9-0.5-1.7-1-1.7-2.2c10.6,2.7,21.3,4.3,32.3,2.1c1.7-0.3,3.3-0.4,4.3-2  c8.3,7.4,15.7,15.4,18.8,26.4c3.4,12.2-1.2,22.4-8.2,32c-0.3,0.4-1.1,0.6-3.2,1.7c4.9-9.7-1.2-13.1-7.2-16.5  c-3.6-2.1-6.3-5.4-10.3-6.9c-0.3-1-0.9-1.6-2-1.7c0,0-0.1,0-0.1,0c-0.1-2-1.6-3.2-2.9-4.4C238.8,268.3,235.7,267.2,234.1,264.4z"/>
<path class="st4" d="M483.3,328.7c5-8.4,9.9-16.9,15-25.3c1.4-2.3,3.2-4.3,5.7-5.4c3.5-1.5,5.7-1.1,6.2,3.3  c1.4,14.2-0.1,28.1-3.4,42c-0.8-8.2-3-16-5.5-23.8c-0.5-1.7-0.6-4.1-2.8-4.2c-1.8-0.1-2.4,2.1-3.2,3.5c-2.7,4.8-5.3,9.6-8,14.4  c-0.9,1.6-1.9,3.1,0.6,4.5c11.3,6.2,13.1,16.6,12.4,28.2c-0.6,9.8-5.9,17.5-11.2,25.2c-1.9-5.5-0.8-10.9,0.5-16.2  c1.8-7.6,1.3-14.8-3.1-21.5c-1.9-2.8-1.2-6.2-1.6-9.3C484.2,338.9,482.4,333.9,483.3,328.7z"/>
<path class="st2" d="M379,463.7c-2.9-0.4-5.7-0.8-8.6-1.1c-10.1-7.3-20.8-13.6-31.8-19.4c-8.2-4.4-16.5-5.4-24.7-0.8  c-7.1,4-13.8,3.6-20.9,0.5c-7.2-3.1-14.3-2.2-21.1,1.4c-3.4,1.8-6.8,3.5-10,5.6c-9.1,5.8-18.8,10.6-27,17.8  c-2.9,0.4-5.8,0.7-8.7,1.1c0-2.7,1.1-5,3.2-6.5c13.9-9.7,27.9-19.4,43.8-25.7c7.5-2.9,15.4-2.8,22.9,0.4c5.6,2.4,10.8,2.7,16.2-0.6  c6.5-4,13.7-3.8,20.7-1.6c16.7,5.1,30.5,15.2,44.1,25.7C378,461.2,378.8,462.3,379,463.7z"/>
<path class="st4" d="M101,386.7c-12.5-16.2-11.6-31.7,3-45.8c2.3-2.2,2.9-4.3,1.7-7.1c-2.2-4.8-4.5-9.7-6.7-14.5  c-0.4-0.9-0.8-2.1-1.9-2c-1.5,0.1-1.5,1.7-1.7,2.7c-2.2,7.8-4.4,15.7-6.6,23.6c-0.4,1.5-1,3-1.9,4.4c-1.3-3.8,0.2-7.5,0.2-11.1  c0.2-10.8-0.1-21.6-0.9-32.4c-0.1-1.6-0.8-3.5,1.1-4.5c2-1.1,3.5,0.4,4.9,1.4c3.3,2.4,5.4,5.8,7.4,9.3c3,5.4,5.1,11.2,9.2,16  C106.9,346.6,102.5,366.4,101,386.7z"/>
<path class="st1" d="M170.9,286.9c-1.6,0-3.1,1.4-5.2,0.5c0.7-3,2.9-4.9,5.2-6.7c15.3-12.4,32.3-14.8,50.5-8  c8.9,3.3,16.8,8.7,24.8,13.7c2.2,1.4,3.5,2.8-0.4,3.5c-0.3-0.6-0.4-1.4-0.8-1.6c-8.1-4.2-16.3-8.4-25.2-12.9  c1.4,8-0.9,13.7-6.7,17.8c-5,2.6-10.4,2.1-15.7,1.6c-6.4-3-9.9-8-9.9-15.1c0-3.2-1.1-3.2-3.4-2C179.3,280,174.7,282.9,170.9,286.9z   M214.7,278.5c-0.4-2.4-1.6-3.7-4-3.7c-2.5,0-3.6,1.3-3.7,3.7c-0.1,2.6,1.7,3.7,3.8,3.7C213,282.2,214.3,280.6,214.7,278.5z"/>
<path class="st1" d="M300,401.8c-4.7,0.3-8.7-0.8-12.3-4.2c-4.3-4-9.6-6.5-15.9-5.6c-2.5,0.3-5,0.3-7.5,0.1  c-2.6-0.2-5.3-0.7-5.5-3.9c-0.2-3.1,2.1-4.4,4.6-5.1c5.5-1.5,10.5-0.3,15.1,3c3.2,2.3,6.4,4.7,9.9,6.7c11,6.4,19.5,5.6,29.3-2.5  c4.8-3.9,9.5-8,15.7-9.3c3-0.6,6-0.9,8.8,0.5c1.4,0.7,2.5,1.7,2.5,3.4c0,1.9-1.4,2.5-2.9,2.9c-0.6,0.2-1.3,0.4-2,0.4  c-10.7,1-20.7,3.7-29.1,11.1C307.9,402,303.8,402.2,300,401.8z"/>
<path class="st1" d="M234.1,264.4c1.6,2.9,4.7,4,7,6.1c1.3,1.3,2.8,2.4,2.9,4.4c-8.9-5.6-17.8-10.9-28.6-12.2  c-18.8-2.2-35.5,2.3-49.8,14.9c-1.7,1.5-2.9,3.7-5.3,4.4l-0.3-0.3c0.4-1.3,0.7-2.6,1.1-4C177.8,258.6,212.6,252.2,234.1,264.4z"/>
<path class="st5" d="M213.1,293.1c5.8-4.1,8.1-9.8,6.7-17.8c8.9,4.5,17,8.7,25.2,12.9c0.4,0.2,0.6,1.1,0.8,1.6  c-5.8,2.2-11.9,0.6-17.9,1.7C223.1,292.4,218.3,294.8,213.1,293.1z"/>
<path class="st5" d="M170.9,286.9c3.8-4,8.4-6.9,13.3-9.3c2.4-1.2,3.4-1.2,3.4,2c0,7.1,3.4,12.2,9.9,15.1  C188.1,293.7,178.7,293,170.9,286.9z"/>
<path class="st1" d="M244,274.9c1.1,0.1,1.7,0.7,2,1.7C244.9,276.6,244.3,275.9,244,274.9z"/>
<path class="st1" d="M160.2,282.1c-0.3,0.3-0.5,0.6-0.8,0.9c0.2-0.4,0.3-0.7,0.5-1.1C159.9,281.8,160.2,282.1,160.2,282.1z"/>
<path class="st3" d="M245.9,848.8c-2.7-3.5-4.6-7.3-4.7-11.9c0.7-0.7,1.5-1.1,2.5-0.9c2.4,2.1,2.9,5.2,3.6,8c1,3.6,2.5,5.1,6.4,3.6  c2.9-1.1,6.1-1.6,9.1-2.3c1.4,3.6,2.8,7.2,3.1,11.1c-3.9,1.8-9.7,0.5-11.7,4c-2,3.5,1.7,8,2.4,12.2c-0.7,0.4-1.5,0.6-2.3,0.2  c-3-3.4-3.6-7.6-4.1-11.9c0.9-0.7,2.7-0.3,2.5-2.4C252.2,854.2,248.9,849.1,245.9,848.8z"/>
<path class="st3" d="M227.1,800.8c-1.8-4.2-3-8.5-3.8-12.9c4.1-0.4,5.7-2.2,3.9-6.4c-0.8-1.8-1.7-3.9-1.2-6.1c6.3-3.3,5.8-3,9.3,2.8  c2.6,4.3,1.8,5.8-2.7,6.6c-3.5,0.6-4.7,2.4-3,6c1.1,2.5,2.5,5.1,2,8.1C230.5,800.4,228.6,800,227.1,800.8z"/>
<path class="st5" d="M244,745.3c1.8,6.6,1.8,6.6-4.6,9.4c-6.2,2.7-6.2,2.7-8.7-3.6C234.7,748.2,238.9,745.7,244,745.3z"/>
<path class="st5" d="M227.1,800.8c1.4-0.8,3.4-0.4,4.4-2c0.5,0.2,1,0.4,1.5,0.6c1.3,3.8,2.5,7.6,3.8,11.3c-1.8,0.7-3.6,1.3-5.4,2  C229.4,808.9,228.3,804.9,227.1,800.8z"/>
<path class="st3" d="M231.4,812.7c1.8-0.7,3.6-1.3,5.4-2c0,0,0.2,0.2,0.2,0.2c0.4,4.4,2.2,8.5,3.5,12.7c-1.4,0.4-2.8,0.8-4.2,1.3  C234.1,821.1,232.4,817,231.4,812.7z"/>
<path class="st5" d="M226,775.3c-0.5,2.2,0.4,4.3,1.2,6.1c1.8,4.2,0.2,6-3.9,6.4c-1.3-3.9-2.9-7.7-2.8-12c1.6,0.3,2.8-0.8,4.1-1.3  C225.1,774.8,225.6,775.1,226,775.3z"/>
<path class="st3" d="M224.6,774.6c-1.3,0.5-2.5,1.6-4.1,1.3c-2.8-3.8-2.9-8.3-3.4-12.7c1.1-0.1,2.3-0.2,3.5-0.3  C222.8,766.5,223.3,770.7,224.6,774.6z"/>
<path class="st5" d="M236.3,824.9c1.4-0.4,2.8-0.8,4.2-1.3c0.5,0.2,1,0.5,1.5,0.7c-0.4,4.1,2.4,7.3,3,11.1c-0.4,0.2-0.8,0.4-1.2,0.6  c-1-0.1-1.8,0.2-2.5,0.9C238.5,833.4,237.2,829.2,236.3,824.9z"/>
<path class="st5" d="M245.9,848.8c3,0.3,6.3,5.3,6.8,9.8c0.2,2.1-1.5,1.7-2.5,2.4C247.9,857.3,246.5,853.2,245.9,848.8z"/>
<path class="st5" d="M254.3,873c0.8,0.4,1.5,0.2,2.3-0.2c0.5,0.2,1,0.4,1.5,0.6c-0.7,2.9,0.5,5.4,1.4,8c0.9,2.6-0.1,3.6-2.4,4  C255.6,881.3,253.8,877.4,254.3,873z"/>
<path class="st5" d="M220.5,762.9c-1.2,0.1-2.3,0.2-3.5,0.3c-0.6-2.7-2.9-6.2,2.7-6.2c-0.2,1.7,0.7,3.1,1.5,4.5  C221,762,220.8,762.4,220.5,762.9z"/>
<path class="st3" d="M259.8,900.8c0.3,0.2,0.4,0.5,0.1,0.8C259.6,901.4,259.6,901.1,259.8,900.8z"/>
<path class="st3" d="M308.3,796.9c3.5-2.8,5.1-7,7.4-10.6c9.8-15.7,20.7-30.5,34-43.6c14-13.8,28.1-27.5,41.6-41.8  c19.5-20.6,37.4-42.3,50.3-67.9c2.7-5.4,5.6-10.6,7.6-16.2c0.5-1.3,1-2.5,2.4-3c0.1,1.7,0.2,3.4,0.4,5.1c-1.4,8.4-4,16.5-6.8,24.5  c-6.3,17.6-13.4,34.8-22.3,51.2c-11.5,21.4-28.5,36.8-50.8,46.6c-16.1,7-27.8,19.5-38.7,33.1c-9.6,12-17.4,25.1-25.4,38.1  c-1.6,1.4-3.2,2.9-4.7,4.3c-1.4-3-2.5-6.1-3.1-9.4c1.1-0.4,2.1-0.9,3.2-1.3C310.7,803.6,310.7,803.6,308.3,796.9z"/>
<path class="st1" d="M452,618.9c-0.1-1.7-0.2-3.4-0.4-5.1c0.9-2.6,0.5-5.2,0.5-7.9c0.1-17,0.1-34.1,1-51.1c4.7,1.1,6,4.7,6.9,8.8  c2.5,11.9-0.6,23.4-2.4,34.9c-0.9,5.6-2.4,11-3.6,16.5C453.7,616.6,453.1,617.9,452,618.9z"/>
<path class="st1" d="M285.7,846.8c1.2-2.7,2.5-5.4,3.8-8.2c-2.5-0.6-4.5,0.6-6.4,1.3c-3.3,1.2-5-0.1-6.1-3.1  c-3.6-9.4-3.6-9.1,6-11.8c4.7-1.3,6.8,0.1,7.9,4.5c0.4,1.3-0.1,4.2,3,3.4C292.2,838.1,292,844.3,285.7,846.8z"/>
<path class="st5" d="M265.9,856.5c-0.2-3.9-1.7-7.5-3.1-11.1c0.2-0.5,0.4-1,0.6-1.5c3.7,0.1,7.2-1.1,10.5-2.2  c3.9-1.4,5.8-0.3,6.7,3.6c0.3,1.6,1.1,3.1,1.7,4.6c0.1,0.7,0.2,1.4,0.3,2.1c-0.3,0.3-0.7,0.6-1,1c-4.8,1.2-9.8,1.9-14.3,4.2  C266.9,856.9,266.4,856.7,265.9,856.5z"/>
<path class="st1" d="M303.2,816.7c1.6-1.4,3.2-2.9,4.7-4.3c-0.1,8.6-5.6,13.3-12.1,17.4c0.7-3.2,4-5.1,4-8.6  C302,820.5,303.1,819,303.2,816.7z"/>
<path class="st1" d="M282.7,851.9c-0.1-0.7-0.2-1.4-0.3-2.1c1.1,0.3,1.7-0.7,2.5-1C285,850.4,284.7,851.7,282.7,851.9z"/>
<path class="st1" d="M294,832.8c0.3-0.5,0.6-0.9,0.9-1.4C294.6,831.9,294.3,832.4,294,832.8z"/>
<path class="st1" d="M308.3,796.9c2.4,6.8,2.4,6.8-5,9.2c-1.1,0.4-2.1,0.9-3.2,1.3c-0.5-0.1-0.9-0.3-1.4-0.4c-1.1-3-1.9-6-3.3-8.9  c-2-4-0.9-6.3,3.4-7.2c2.1-0.5,3.9-1.9,6.2-1.5C306.1,791.9,307.2,794.4,308.3,796.9z"/>
<path class="st1" d="M298.5,775.8c-2.8,2.4-6.7,5.4-9.4,3.5c-3.4-2.4-4-7.7-5.2-11.9c-0.3-1.2,1.3-1.7,2.3-2.2  c1.9-0.9,3.9-1.8,5.8-2.7C295.5,766.3,297.1,771,298.5,775.8z"/>
<path class="st1" d="M285.5,750.9c-1,0.6-2,1.2-3,1.8c-3.7,2-6.6,2-8-2.8c-0.7-2.4-2.7-4.2-2.7-6.9  C278.1,742.6,283.2,744.4,285.5,750.9z"/>
<path class="st5" d="M267.5,743c-1.4,1.5-3.5,1.8-5.2,2.7c-3.2,1.7-5.3,1.1-6-2.7C260.1,743,263.8,743,267.5,743z"/>
<path class="st1" d="M146.8,574.9c0.6,18,1.3,36,1.9,54c-3.4-3-3.4-7.4-4.4-11.2c-2.7-10.9-5-21.9-3.4-33.3  C141.5,580.3,142.3,576.5,146.8,574.9z"/>
<path class="st1" d="M220.5,762.9c0.2-0.5,0.5-0.9,0.7-1.4c1.4-0.6,2.8-1.1,4.2-1.7c7-2.9,7-2.9,10.7,3.6c2.8-2.6,5.2-5.6,9.1-6.7  c0.5-0.1,1.4-0.9,1.3-1.3c-0.9-7.8,6.5-5.3,9.8-7.8c0.8-0.6,2.3-0.3,2.6,0.7c1.5,4.2,5.3,7.5,3.7,13.1c-0.9,3.3,1.4,7.5,2.4,11.3  c0.1,0.2,0.5,0.5,0.8,0.5c1.5,0,3.3-1.7,4.3,0.7c1.4,3.5,2.8,7.1,3.9,10.7c0.4,1.4-1,1.9-2.1,2.3c-2.5,0.9-5,1.8-7.5,2.7  c-2.2,0.8-3.9,0.6-4.7-2c-0.5-1.8-1.4-3-3.6-2c-3.9,1.8-8.1,1.6-13,0.8c1.2,3.1,2.2,5.6,3.2,8.1c-0.1,0.5-0.3,1-0.4,1.5  c-4.3,1.1-8.6,2.1-13,3.2c-0.5-0.2-1-0.4-1.5-0.6c0.5-3-0.9-5.6-2-8.1c-1.6-3.6-0.5-5.4,3-6c4.5-0.8,5.3-2.3,2.7-6.6  c-3.5-5.8-3-6.1-9.3-2.8c-0.5-0.2-0.9-0.5-1.4-0.7C223.3,770.7,222.8,766.5,220.5,762.9z"/>
<path class="st5" d="M278,797.5c0.4-3.2-1.6-5.6-2.6-8.4c-0.8-2.4-0.6-3.8,2-4.5c1.1-0.3,2.1-0.9,3.2-1.2c10-3.4,7.7-3.9,11.9,5.1  c1.9,4.1,0.9,5.4-3,6.4c-3.5,0.9-6.9,2.3-10.3,3.5C278.8,798,278.4,797.7,278,797.5z"/>
<path class="st5" d="M298.7,807c0.5,0.1,0.9,0.3,1.4,0.4c0.6,3.3,1.7,6.4,3.1,9.4c-0.1,2.3-1.2,3.8-3.4,4.4  c-3.8,0.2-7.7,3.8-10.9,2.1c-3.2-1.7-2.7-6.8-4.4-10.1c-0.1-0.3-0.4-0.5-0.6-0.8c0.2-0.2,0.3-0.4,0.4-0.7  C289,810.1,293.9,808.5,298.7,807z"/>
<path class="st5" d="M259.3,831.6c-0.9,0.2-1.2-1-1.6-2.1c-0.6-1.7-1.1-3.5-1.8-5.2c-1.7-3.7-0.5-5.6,3.4-6.2  c2.1-0.4,4.3-0.7,6.3-1.6c3.9-1.9,5.3,0.1,6.5,3.4c2.8,7.6,2.9,7.6-4.7,9.7C265,830.3,262.5,830.8,259.3,831.6z"/>
<path class="st5" d="M270.5,771.7c-2.6-0.2-2.7-2.5-3.5-3.9c-3.7-7.5-3.7-7.7,4-10.7c2.1-0.8,4.7-3.7,6.7-1.5  c2.4,2.8,4.2,6.4,5.1,10.1c0.1,0.4-0.4,1.4-0.9,1.5C278.1,768.8,274.2,770.3,270.5,771.7z"/>
<path class="st5" d="M246,796.2c0.1-0.5,0.3-1,0.4-1.5c3.5-1,7.2-1.7,10.5-3.1c3.4-1.4,4.8-0.2,5.9,2.9c2.9,7.8,3.1,7.9-4.4,10.2  c-10.6,3.3-7.8,3.6-11.3-5.8C246.8,797.9,246.4,797.1,246,796.2z"/>
<path class="st1" d="M278,797.5c0.4,0.3,0.9,0.6,1.3,0.8c1.7,4.4,3.3,8.9,4.9,13.3c-0.1,0.3-0.2,0.5-0.4,0.7c-3.2,0-6.2,1.3-9.1,2.3  c-3,1-4.8,0.6-6.2-2.7c-3.9-9.3-4-9.2,5.5-12.5C275.4,799,276.6,798.1,278,797.5z"/>
<path class="st1" d="M263.4,843.8c-0.2,0.5-0.4,1-0.6,1.5c-3,0.8-6.2,1.2-9.1,2.3c-3.8,1.4-5.4-0.1-6.4-3.6c-0.8-2.8-1.3-5.9-3.6-8  c0.4-0.2,0.8-0.4,1.2-0.6C257.2,830.5,257.2,830.5,263.4,843.8z"/>
<path class="st1" d="M242,824.4c-0.5-0.2-1-0.5-1.5-0.7c-1.3-4.2-3.1-8.3-3.5-12.7c1.2-0.5,2.4-1.1,3.6-1.5c10.1-3,10.5-2.7,13,7.4  c0.6,2.5,0.1,3.7-2.3,4.4C248.2,822.2,245.1,823.3,242,824.4z"/>
<path class="st1" d="M317.9,886.2c-0.3,0.6-0.6,1.7-1.3,2.3c-1.6,1.5-1.2,2.7,0.2,4.1c1.5,1.4,1.9,3.1,0.4,4.8  c-1.6,1.8-3.6,1.3-4.9,0.2c-2-1.8-3.2-1.2-5,0.3c-1.3,1.1-3,1.3-4.4-0.3c-1.2-1.4-1.7-3.1-0.3-4.5c1.7-1.7,2.1-3.1,0.3-5  c-1.2-1.3-1.6-3-0.2-4.5c1.5-1.6,3.5-1.6,4.9-0.2c1.7,1.7,2.6,1.4,4.5,0C314.7,881.4,318,883,317.9,886.2z"/>
<path class="st1" d="M265.9,856.5c0.5,0.2,1,0.4,1.5,0.6c0.3,4.2,4.3,8.6,2,12.2c-2.1,3.3-7.7,2-11.4,4c-0.5-0.2-1-0.4-1.5-0.6  c-0.7-4.2-4.4-8.7-2.4-12.2C256.1,856.9,262,858.3,265.9,856.5z"/>
<path class="st2" d="M363.9,263.9c-3.2-0.8-4.9,2.4-7.6,3c-1.3,0.3-2.7,0.9-3.7-0.4c-0.8-1.1,0-2.2,0.4-3.3  c1.9-4.7,5.9-7.5,9.8-10.3c8.8-6.2,18.8-10.6,27.2-17.5c0.5,0,0.9,0,1.4,0c7.7,1.4,15.5,0.1,23.4,1.3c9.9,1.5,18,5.5,24,13.5  c4.1,5.4,4.6,11.6,4.2,18c-0.3,4.3-4.3,0.8-5.9,2.6c-1.8-1.7-3.5-3.5-5.5-5C413.1,252.6,383.1,251.8,363.9,263.9z"/>
<path class="st1" d="M363.9,263.9c19.2-12.1,49.2-11.2,67.6,2c2,1.4,3.7,3.3,5.5,5c1.3,3.2,5,5.3,4.4,10c-3.5-3.3-5.7-7.1-9.1-9.7  c-19.5-15.2-46.4-16.2-67.7-2.7c-3.5,2.2-6.4,5.3-10.5,6.5c0.8-3.7,4-5.4,6.5-7.7C361.7,266.2,363.3,265.5,363.9,263.9z"/>
<path class="st1" d="M356.1,285.1c-0.4,0.5-0.8,1-1.2,1.6c-0.7-0.2-2,0-1.4-1.2C354,284.4,355,283.8,356.1,285.1z"/>
<path class="st2" d="M357,287.9c0.3-0.1,0.6-0.1,0.9,0.1C357.6,287.9,357.3,287.9,357,287.9z"/>
<path class="st5" d="M409,276c-0.5,2.4-1.8,3.8-4.1,3.7c-2.3-0.1-3.7-1.7-3.6-3.8c0.1-2,1.2-4.1,3.6-3.8  C407.1,272.3,408.8,273.7,409,276z"/>
<path class="st4" d="M234.7,467.6c8.1-7.2,17.9-12,27-17.8c3.2-2.1,6.7-3.8,10-5.6c6.8-3.6,13.9-4.5,21.1-1.4  c7.1,3.1,13.8,3.5,20.9-0.5c8.2-4.6,16.5-3.5,24.7,0.8c11,5.8,21.7,12.1,31.8,19.4c-6.2,0.5-12.2-1.3-18.2-2.3  c-13.2-2.3-26.2-3.9-39.4,0.3c-6.5,2.1-13.2,1.6-19.7,0.2c-11.6-2.4-22.7-0.3-33.9,2.5C251.1,465.3,243.1,467.3,234.7,467.6z"/>
<path class="st5" d="M214.7,278.5c-0.4,2.1-1.7,3.7-3.9,3.7c-2.1,0-3.9-1.1-3.8-3.7c0.1-2.4,1.2-3.7,3.7-3.7  C213.1,274.8,214.3,276.1,214.7,278.5z"/>
</svg>