<?xml version="1.0" encoding="utf-8"?>
<!-- Generator: Adobe Illustrator 21.0.0, SVG Export Plug-In . SVG Version: 6.00 Build 0)  -->
<svg version="1.1" id="Layer_1" xmlns="http://www.w3.org/2000/svg" xmlns:xlink="http://www.w3.org/1999/xlink" x="0px" y="0px"
	 viewBox="0 0 595.3 841.9" style="enable-background:new 0 0 595.3 841.9;" xml:space="preserve">
<style type="text/css">
	.st0{fill:#DF2F44;}
	.st1{fill:#DCB199;}
	.st2{fill:#D29F86;}
	.st3{fill:#F3F4F6;}
	.st4{fill:#212121;}
</style>
<g>
	<path class="st0" d="M382.5,438.1c13.1,0,26.1,0,40,0c-4.8,7-9.3,13.5-13.7,19.9c-13,18.9-26.1,37.8-39.1,56.7
		c-0.6,0.9-2,1.7-1.3,2.8c0.6,1,2.1,0.5,3.1,0.5c35.2,0,70.5,0,105.7,0c15.4,0,30.2,2.8,43.9,10.2c26.1,14.1,41.3,36,46.4,65.1
		c0.8,4.6,1,9.4,1,14.2c-0.1,20.9,0,41.7-0.1,62.6c-0.1,30.1-21.8,54.3-51.9,57.8c-3.2,0.4-6.5,0.5-9.7,0.5
		c-140.2,0-280.4,0-420.7,0c-28.6,0-51.7-18.3-58.1-46.1c-0.7-3.2-1.2-6.4-1.2-9.6c0-23.2-0.5-46.5,0.2-69.7
		c1.1-38.1,27.1-70.3,61.9-80.8c9.7-2.9,19.5-4,29.5-4.1c10.1-0.1,20.2,0,30.4-0.1c1.1,0,2.5,0.6,3.1-0.5c0.6-1.1-0.7-2-1.3-2.8
		c-16.7-24.4-33.5-48.7-50.3-73c-0.7-1-1.6-1.8-1.8-3.5c38.2,0,76.3,0,114.3,0c1.7,0.7,3.5,1.4,5.1,2.3c23.7,12.3,49,18.3,75.6,19.5
		c7.7,0.4,15.4-0.6,23.1-1.3c14.8-1.5,29.1-5.1,43-10.3C367.5,445.4,374.8,441.3,382.5,438.1z M302.2,552.5c0-2.2,0-4.5,0-6.7
		c0-6.1,0-12.2,0-18.4c0-3-1.6-4.9-4.5-4.9c-2.9,0-4.4,1.9-4.5,4.9c0,0.9,0,1.7,0,2.6c0,15.1-0.1,30.2,0.1,45.3
		c0,2.7-0.8,3.4-3.3,3.3c-5.1-0.2-10.2,0-15.4-0.1c-3.1,0-5.3,1.3-5.3,4.5c0,3.2,2.1,4.6,5.2,4.5c5.1,0,10.2,0.2,15.4-0.1
		c2.9-0.2,3.5,0.9,3.4,3.6c-0.1,15.4-0.1,30.7-0.1,46.1c0,1.5-0.2,3,0.7,4.4c1.2,1.7,2.7,2.6,4.8,2c2.7-0.8,3.5-2.8,3.5-5.5
		c0-14.2-0.1-28.5,0-42.7c0-3.7-0.7-7.5,1.3-11c0.5-0.9,0.4-2.3-0.2-3.3c-1.3-2-1.1-4.3-1.1-6.5
		C302.2,567.2,302.2,559.8,302.2,552.5z"/>
	<path class="st1" d="M158.9,184.7c2.6-5.5,6.8-9.7,10.8-14c11.8-12.9,25.1-24,40.2-33c17.6-10.4,36.5-17.4,56.5-21.2
		c11.3-2.1,22.6-3.3,34.1-3c21.3,0.5,41.9,4.7,61.6,12.7c17.5,7.1,33.4,16.8,47.7,29.2c10.5,9.1,19.8,19.2,28,30.3
		c0.5,0.6,0.9,1.2,0.9,2c-1.2,0.1-1.7-0.6-2.4-1.5c-3.1-4.4-6.9-8.2-10.8-11.9c-0.6-0.6-1.1-1.8-2.4-1c-0.1,0.8,0.4,1.2,0.8,1.7
		c7,7.4,12.5,15.9,17.2,24.8c12.7,24,18.1,49.5,15.6,76.8c-1.5,15.9-5.6,30.8-12.7,44.9c-7.6,15-17.8,28.1-30.7,39.1
		c-12.2,10.4-25.7,18.2-40.9,23.5c-11.8,4.1-24.1,5.8-36.5,7c-3.7,0.4-4.2-1.1-3.3-4.3c0.4-1.5,1-4.1-1.3-4.4
		c-2.3-0.3-1.8,2.4-2.3,3.9c0,0.1,0,0.3,0,0.4c0.6,3.8-1.4,4.5-4.8,4.5c-17-0.1-34,0-51-0.1c-2.2,0-4.7,0.9-6.6-0.5
		c-1.5-1.2-0.2-3.6-0.9-5.3c-0.2-0.3-0.3-0.7-0.3-1.1c-0.2-1-0.2-2.2-1.7-1.9c-1.2,0.3-1.5,1.3-1.4,2.3c0,0.7,0,1.5,0.2,2.2
		c0.8,4.2,0.2,4.8-4.1,4.2c-8.8-1.2-17.7-2-26.4-4.2c-20.6-5.3-38.6-15.2-54.1-29.6c-12.4-11.6-22.2-25.1-29.2-40.7
		c-6.3-14.2-9.9-29-10.8-44.3c-0.7-10.5,0.1-21.1,2-31.6c3.8-21.3,12.2-40.4,25-57.7c2.4-3.2,4.8-6.3,7.3-9.4
		c-3.6,2.9-7,5.9-10.2,9.1C161.1,183.4,160.5,184.8,158.9,184.7z M196.4,319c13.4,0,23.9-10.6,24-24.1c0-13.1-11-24-24.3-23.9
		c-13.2,0.1-23.7,10.8-23.7,24C172.4,308.6,182.9,319.1,196.4,319z M423,294.9c0-13.1-10.6-23.8-23.8-23.9
		c-13.3-0.1-24.2,10.7-24.2,24c0,13.3,10.8,24,24.1,24C412.6,319,423,308.5,423,294.9z"/>
	<path class="st2" d="M158.9,184.7c1.7,0.1,2.2-1.3,3.2-2.2c3.2-3.2,6.7-6.2,10.2-9.1c-2.4,3.1-4.9,6.2-7.3,9.4
		c-12.8,17.3-21.2,36.5-25,57.7c-1.9,10.5-2.6,21-2,31.6c1,15.3,4.5,30.1,10.8,44.3c7,15.6,16.8,29.2,29.2,40.7
		c15.4,14.4,33.4,24.4,54.1,29.6c8.7,2.2,17.6,3,26.4,4.2c4.3,0.6,4.8,0,4.1-4.2c-0.1-0.7-0.2-1.5-0.2-2.2c0-1.1,0.3-2.1,1.4-2.3
		c1.5-0.3,1.5,0.9,1.7,1.9c0.1,0.4,0.2,0.7,0.3,1.1c0.8,1.7-0.6,4.2,0.9,5.3c1.8,1.4,4.3,0.5,6.6,0.5c17,0.1,34,0,51,0.1
		c3.4,0,5.4-0.7,4.8-4.5c0-0.1,0-0.3,0-0.4c0.5-1.5-0.1-4.2,2.3-3.9c2.3,0.3,1.8,3,1.3,4.4c-1,3.2-0.5,4.7,3.3,4.3
		c12.4-1.2,24.6-2.9,36.5-7c15.1-5.3,28.6-13.1,40.9-23.5c12.9-11,23.2-24,30.7-39.1c7.1-14.1,11.3-29.1,12.7-44.9
		c2.5-27.3-3-52.7-15.6-76.8c-4.7-8.9-10.1-17.4-17.2-24.8c-0.4-0.4-0.9-0.9-0.8-1.7c1.2-0.8,1.7,0.4,2.4,1
		c3.9,3.7,7.6,7.5,10.8,11.9c0.6,0.9,1.2,1.6,2.4,1.5c0,0,0,0,0,0c-0.1,1.2-0.1,2.3,1.6,2.3c6,7.5,10.4,16,14.4,24.7
		c5.3,11.3,9.1,23.1,11.8,35.2c3.8,17.4,4.7,34.9,3.1,52.7c-2,22.6-8.5,43.9-19,63.9c-6.3,12-14,23.1-23,33.3
		c-12.7,14.4-27.1,26.6-43.8,36.1c-1,0.6-1.5,1.2-1.4,2.3c-7.7,3.1-15,7.2-22.8,10.1c-13.9,5.2-28.2,8.8-43,10.3
		c-7.7,0.8-15.4,1.7-23.1,1.3c-26.5-1.2-51.9-7.2-75.6-19.5c-1.6-0.9-3.4-1.5-5.1-2.3c0.3-1.6-1-2.1-2.1-2.7
		c-10-5.7-18.9-12.6-27.6-20.2c-13.6-11.9-24.9-25.6-34.2-41.1c-11-18.4-18.1-38.3-21.9-59.5c-2.3-12.9-2.7-25.8-2-38.7
		c1.1-19.9,5.8-39,13.7-57.3c4.1-9.6,9.2-18.7,14.9-27.5c0.3-0.5,0.9-0.9,1.3-1.3c1.6,0,1.6-1.1,1.6-2.3c0,0,0,0,0,0
		C158.7,187.7,159,186.4,158.9,184.7L158.9,184.7z"/>
	<path class="st1" d="M158.9,184.7c0.1,1.7-0.2,3-2.3,3C156.6,186.1,157.7,185.4,158.9,184.7z"/>
	<path class="st1" d="M156.6,187.7c0.1,1.2,0.1,2.3-1.6,2.3C155.1,188.9,155.6,188.1,156.6,187.7z"/>
	<path class="st1" d="M440.3,190c-1.6,0-1.6-1.1-1.6-2.3C439.8,188.1,440.3,188.9,440.3,190z"/>
	<path class="st3" d="M302.2,552.5c0,7.4,0,14.7,0,22.1c0,2.2-0.2,4.5,1.1,6.5c0.6,1,0.7,2.3,0.2,3.3c-2,3.5-1.3,7.3-1.3,11
		c-0.1,14.2-0.1,28.5,0,42.7c0,2.7-0.8,4.7-3.5,5.5c-2.1,0.6-3.6-0.4-4.8-2c-0.9-1.3-0.7-2.9-0.7-4.4c0-15.4-0.1-30.7,0.1-46.1
		c0-2.7-0.5-3.7-3.4-3.6c-5.1,0.3-10.2,0.1-15.4,0.1c-3.1,0-5.2-1.3-5.2-4.5c0-3.2,2.2-4.5,5.3-4.5c5.1,0,10.2-0.1,15.4,0.1
		c2.6,0.1,3.4-0.6,3.3-3.3c-0.1-15.1-0.1-30.2-0.1-45.3c0-0.9,0-1.7,0-2.6c0.1-3,1.6-4.9,4.5-4.9c2.9,0,4.5,1.9,4.5,4.9
		c0,6.1,0,12.2,0,18.4C302.2,548,302.2,550.2,302.2,552.5z"/>
	<path class="st4" d="M196.4,319c-13.5,0-23.9-10.4-24-24c-0.1-13.2,10.5-23.9,23.7-24c13.3-0.1,24.3,10.7,24.3,23.9
		C220.3,308.4,209.7,319,196.4,319z"/>
	<path class="st4" d="M423,294.9c0,13.5-10.5,24.1-23.9,24.1c-13.4,0-24.1-10.7-24.1-24c0-13.3,10.9-24.1,24.2-24
		C412.4,271.1,423,281.8,423,294.9z"/>
</g>
</svg>
